<svg xmlns="http://www.w3.org/2000/svg" viewBox="0 0 48 32" fill="none">
  <rect width="48" height="32" rx="4" fill="#FF6000"/>
  <circle cx="38" cy="16" r="10" fill="#FFAA00"/>
  <path d="M10 14H12C13 14 13.5 14.5 13.5 15.5C13.5 16.5 13 17 12 17H10V14ZM10 12V20H12C14.2 20 15.5 18.7 15.5 16C15.5 13.3 14.2 12 12 12H10Z" fill="white"/>
  <rect x="17" y="12" width="2" height="8" fill="white"/>
  <path d="M21 17.5C21 18.3 21.7 19 22.5 19C23 19 23.4 18.7 23.7 18.3L25 19.3C24.4 20 23.5 20.5 22.5 20.5C20.6 20.5 19 19 19 16.5C19 14 20.6 12.5 22.5 12.5C23.5 12.5 24.4 13 25 13.7L23.7 14.7C23.4 14.3 23 14 22.5 14C21.7 14 21 14.7 21 15.5V17.5Z" fill="white"/>
</svg>
