<svg xmlns="http://www.w3.org/2000/svg" viewBox="0 0 48 32" fill="none">
  <rect width="48" height="32" rx="4" fill="#1A1F71"/>
  <path d="M19.5 10.5L17.2 21.5H14.8L12.5 10.5H15L16.5 17.5L18 10.5H19.5ZM23 10.5L20.5 21.5H18.5L21 10.5H23ZM28.5 10.5C29.5 10.5 30.2 11 30.5 11.8L28.8 12.5C28.7 12.2 28.4 12 28 12C27.5 12 27.2 12.3 27.2 12.7C27.2 13.5 30.5 13.5 30.5 16C30.5 17.5 29.3 18.5 27.8 18.5C26.5 18.5 25.5 17.8 25.2 16.8L26.9 16.1C27 16.5 27.4 16.8 27.9 16.8C28.4 16.8 28.7 16.5 28.7 16.1C28.7 15.2 25.4 15.3 25.4 12.8C25.4 11.5 26.5 10.5 28.5 10.5ZM35.5 10.5L33.5 21.5H31.5L29.5 10.5H31.5L32.5 17.5L33.5 10.5H35.5Z" fill="white"/>
</svg>
